<svg version="1.1" id="Layer_1" xmlns="http://www.w3.org/2000/svg" xmlns:xlink="http://www.w3.org/1999/xlink" x="0px" y="0px"
	 width="100%" viewBox="0 0 1024 928" enable-background="new 0 0 1024 928" xml:space="preserve">
<path fill="#000000" opacity="1.000000" stroke="none" 
	d="
M598.246033,591.785889 
	C600.429749,593.682495 602.608459,594.882263 604.991150,595.710327 
	C607.141907,596.457825 608.338074,597.800171 607.993225,600.211792 
	C607.648254,602.624329 605.837708,602.999451 603.936523,603.003357 
	C584.109497,603.043640 564.282349,603.054077 544.455322,603.026733 
	C543.006592,603.024719 541.052856,603.025818 541.164368,600.928955 
	C541.270935,598.923218 543.249329,598.912231 544.657288,599.039001 
	C548.960205,599.426514 551.440430,598.142212 550.869751,593.294006 
	C550.781799,592.546204 551.148010,591.610229 551.590698,590.954712 
	C558.665955,580.478210 559.552185,568.430908 559.629822,556.463196 
	C560.172485,472.823822 560.272156,389.182495 559.571045,305.543488 
	C559.502991,297.426239 558.376038,289.300812 555.694153,281.495483 
	C554.115234,276.900238 551.617737,273.067505 547.284302,270.754944 
	C544.482056,269.259491 543.518494,267.151764 544.206421,264.172821 
	C544.986206,260.795807 547.773987,261.739990 549.918152,261.736755 
	C580.409119,261.690735 610.910950,261.214020 641.387817,261.872559 
	C666.883423,262.423492 692.268005,264.791962 716.191284,274.909851 
	C739.511780,284.772827 755.044556,301.081085 758.044556,327.060425 
	C761.920105,360.621948 745.351379,391.783966 715.640625,408.529480 
	C700.767578,416.912170 684.685059,421.377228 667.288391,424.694275 
	C672.501953,426.084808 677.038330,427.246155 681.547302,428.505310 
	C709.085938,436.195618 726.152954,455.062103 737.214478,480.465485 
	C748.250549,505.810394 756.631470,532.240356 768.631531,557.184875 
	C773.979919,568.302551 779.601929,579.260498 787.818726,588.649292 
	C793.435791,595.067566 800.056641,598.814575 808.908264,597.348206 
	C810.690796,597.052856 812.725403,596.642761 813.197937,599.333069 
	C813.619385,601.732849 812.558350,603.125305 810.230103,603.693542 
	C786.544495,609.474304 764.543701,607.993347 750.836731,582.799011 
	C742.931213,568.268188 737.651062,552.595276 731.009827,537.515320 
	C721.883179,516.792053 714.490112,495.333771 704.426575,475.008453 
	C700.121033,466.312622 695.060242,458.175049 688.597229,450.851746 
	C676.145752,436.743011 660.165894,429.852264 641.955139,427.342468 
	C625.869324,425.125580 609.680054,426.365387 593.536987,426.030457 
	C589.763977,425.952209 588.257935,427.113678 588.270874,431.157532 
	C588.398804,471.145355 588.196472,511.134857 588.480042,551.121094 
	C588.544678,560.220886 589.198242,569.409485 591.339539,578.367981 
	C592.515991,583.289795 594.150940,587.965942 598.246033,591.785889 
M588.335876,292.500031 
	C588.337524,331.803131 588.338745,371.106262 588.341125,410.409363 
	C588.341553,417.864594 588.343750,417.878204 595.569580,417.879822 
	C610.724609,417.883240 625.880310,417.779022 641.034363,417.896729 
	C651.403503,417.977264 661.662903,417.058044 671.717651,414.624634 
	C697.131897,408.473907 716.397278,395.113922 724.288574,368.807556 
	C727.643738,357.622589 727.983704,346.146515 726.483398,334.713806 
	C725.112183,324.265106 722.056641,314.253174 715.907532,305.408417 
	C705.829041,290.911865 691.528870,282.724701 675.118774,277.408020 
	C660.443481,272.653381 645.329285,270.426636 630.049500,269.562592 
	C618.095703,268.886627 606.087524,268.932587 594.098755,269.640015 
	C589.786804,269.894470 587.877808,271.384308 588.247681,276.019531 
	C588.657043,281.149414 588.338257,286.337433 588.335876,292.500031 
z"/>
<path fill="#000000" opacity="1.000000" stroke="none" 
	d="
M210.482697,453.375488 
	C208.768509,436.939087 209.440262,421.001770 211.776001,405.151947 
	C216.093170,375.856659 226.121216,348.741669 243.618591,324.669922 
	C269.678345,288.818604 304.981476,267.683899 348.333435,259.714874 
	C374.930267,254.825775 401.374298,256.966309 427.697479,262.129730 
	C446.731720,265.863403 465.112457,271.528778 482.620941,280.019623 
	C487.386261,282.330597 489.472534,285.162964 489.460663,290.709656 
	C489.433289,303.519196 490.199799,316.331146 490.692902,329.140289 
	C490.768341,331.100098 491.623047,333.299774 488.979736,334.209717 
	C486.101227,335.200653 485.295929,332.951508 484.243164,331.015503 
	C466.526672,298.435211 439.109711,278.124329 403.283661,270.392883 
	C369.285828,263.056030 335.610992,264.974304 304.175018,281.842194 
	C271.230011,299.519806 250.695587,327.405487 242.457565,363.342316 
	C226.713684,432.021973 241.217804,494.045563 288.439728,546.883728 
	C312.124512,573.385437 342.734985,587.998108 378.451630,591.887451 
	C407.888458,595.092957 434.679962,589.043884 458.882904,571.877563 
	C468.093842,565.344482 475.803375,557.367981 482.103302,548.001282 
	C483.827698,545.437439 484.756592,542.775146 484.683075,539.597839 
	C484.251495,520.943237 483.999268,502.284485 483.561554,483.630096 
	C483.483826,480.318665 482.973938,476.993530 482.394348,473.722443 
	C480.900330,465.290466 475.933289,459.656799 468.027588,456.561737 
	C466.326721,455.895874 464.567261,455.362244 462.805145,454.874817 
	C460.541321,454.248566 458.666351,453.397827 459.213501,450.491821 
	C459.727814,447.760284 461.864532,447.866089 463.869568,447.862976 
	C477.368713,447.841949 490.867950,447.850861 504.367157,447.851715 
	C505.200378,447.851776 506.034882,447.899689 506.866547,447.867340 
	C509.649963,447.759155 510.680542,449.151093 510.671082,451.846802 
	C510.570007,480.675537 510.497528,509.504486 510.494446,538.333374 
	C510.494202,540.708557 509.445831,542.462891 508.175415,544.227966 
	C495.162018,562.308350 477.472687,574.471436 457.785583,584.140930 
	C428.466400,598.541260 397.349426,603.595154 365.037628,601.249695 
	C321.782166,598.109863 283.008026,584.063293 252.358841,552.047607 
	C230.500641,529.214844 217.961807,501.634277 212.737305,470.621124 
	C211.800262,465.058746 211.269424,459.427979 210.482697,453.375488 
z"/>
</svg>